<svg xmlns="http://www.w3.org/2000/svg" viewBox="0 0 309.546 308.462"><style type="text/css">.blob{fill-rule:evenodd;clip-rule:evenodd;}</style><path class="blob" d="M260.567 84.12c33.214 8.7 57.7 40.1 46 79c-2.063 6.828-7.715 13.332-8 18c-0.46 7.5 5.3 13.6 6 19 c2.692 19.498-2.035 36.107-12 48c-3.938 4.699-11.24 8.609-16 14c-5.527 6.262-9.637 12.238-14 15c-4.909 3.109-13.404 3.711-22 7 c-5.261 2.014-9.42 6.496-14 8c-4.302 1.414-9.37 0.703-14 2c-8.288 2.324-15.047 7.227-22 8c-9.782 1.09-16.887-3.189-26-4 c-10.887-0.967-20.334 5.77-31 7c-42.361 4.887-60.001-29.729-67-68c-10.509-6.564-22.778-7.35-34-13 c-31.568-15.895-44.011-64.342-20-93c10.681-12.749 26.931-18.897 41-30c-15.291-34.378 2.393-80.147 45-82 c5.007-0.218 9.9 2.1 15 2c13.258-0.137 30.944-3.466 45-6c15.737-2.837 29.44-13.123 44-14 C247.333-1.579 270.7 41.8 260.6 84.12z"/></svg>
